<svg width="32" height="32" viewBox="0 0 32 32" fill="none" xmlns="http://www.w3.org/2000/svg">
<path d="M10.6667 28H21.3334M16.0001 22.6667V28M9.06675 22.6667H22.9334C25.1736 22.6667 26.2937 22.6667 27.1494 22.2307C27.902 21.8472 28.5139 21.2353 28.8974 20.4826C29.3334 19.627 29.3334 18.5069 29.3334 16.2667V10.4C29.3334 8.15979 29.3334 7.03969 28.8974 6.18404C28.5139 5.43139 27.902 4.81947 27.1494 4.43597C26.2937 4 25.1736 4 22.9334 4H9.06675C6.82654 4 5.70643 4 4.85079 4.43597C4.09814 4.81947 3.48622 5.43139 3.10272 6.18404C2.66675 7.03969 2.66675 8.15979 2.66675 10.4V16.2667C2.66675 18.5069 2.66675 19.627 3.10272 20.4826C3.48622 21.2353 4.09814 21.8472 4.85079 22.2307C5.70643 22.6667 6.82654 22.6667 9.06675 22.6667Z" stroke="#91FF02" stroke-width="3" stroke-linecap="round" stroke-linejoin="round"/>
</svg>
