<svg width="32" height="32" viewBox="0 0 32 32" fill="none" xmlns="http://www.w3.org/2000/svg">
<path d="M16 23.0333L10.4666 26.3666C10.2222 26.5222 9.96662 26.5888 9.69995 26.5666C9.43328 26.5444 9.19995 26.4555 8.99995 26.2999C8.79995 26.1444 8.64439 25.9502 8.53328 25.7173C8.42217 25.4844 8.39995 25.223 8.46662 24.9333L9.93328 18.6333L5.03328 14.3999C4.81106 14.1999 4.67239 13.9719 4.61728 13.7159C4.56217 13.4599 4.57862 13.2102 4.66662 12.9666C4.75462 12.723 4.88795 12.523 5.06662 12.3666C5.24528 12.2102 5.48973 12.1102 5.79995 12.0666L12.2666 11.4999L14.7666 5.5666C14.8777 5.29994 15.0502 5.09993 15.284 4.9666C15.5177 4.83327 15.7564 4.7666 16 4.7666C16.2435 4.7666 16.4822 4.83327 16.716 4.9666C16.9497 5.09993 17.1222 5.29994 17.2333 5.5666L19.7333 11.4999L26.1999 12.0666C26.5111 12.111 26.7555 12.211 26.9333 12.3666C27.1111 12.5222 27.2444 12.7222 27.3333 12.9666C27.4222 13.211 27.4391 13.4613 27.3839 13.7173C27.3288 13.9733 27.1897 14.2008 26.9666 14.3999L22.0666 18.6333L23.5333 24.9333C23.6 25.2222 23.5777 25.4835 23.4666 25.7173C23.3555 25.951 23.2 26.1453 23 26.2999C22.8 26.4546 22.5666 26.5435 22.3 26.5666C22.0333 26.5897 21.7777 26.523 21.5333 26.3666L16 23.0333Z" fill="#F3993F"/>
</svg>
