<svg width="64" height="64" viewBox="0 0 64 64" fill="none" xmlns="http://www.w3.org/2000/svg">
<rect x="0.5" y="0.5" width="63" height="63" rx="31.5" fill="black"/>
<rect x="0.5" y="0.5" width="63" height="63" rx="31.5" stroke="#252B37"/>
<path d="M24.6385 44.9698V27.6816H18.8972V44.9698H24.6391H24.6385ZM21.7691 25.3216C23.7707 25.3216 25.0169 23.994 25.0169 22.335C24.9794 20.6381 23.7707 19.3477 21.8071 19.3477C19.8422 19.3477 18.5588 20.6381 18.5588 22.3348C18.5588 23.9939 19.8046 25.3214 21.7314 25.3214H21.7686L21.7691 25.3216ZM27.8163 44.9698H33.5571V35.3163C33.5571 34.8003 33.5946 34.2829 33.7463 33.9144C34.1611 32.8816 35.1058 31.8125 36.6921 31.8125C38.769 31.8125 39.6004 33.3978 39.6004 35.7221V44.9698H45.341V35.0573C45.341 29.7473 42.5091 27.2763 38.7319 27.2763C35.6351 27.2763 34.275 29.0087 33.5194 30.1886H33.5576V27.6822H27.8166C27.8916 29.304 27.8162 44.9704 27.8162 44.9704L27.8163 44.9698Z" fill="#FDFDFD"/>
</svg>
