<svg width="64" height="64" viewBox="0 0 64 64" fill="none" xmlns="http://www.w3.org/2000/svg">
<rect x="0.5" y="0.5" width="63" height="63" rx="31.5" fill="black"/>
<rect x="0.5" y="0.5" width="63" height="63" rx="31.5" stroke="#252B37"/>
<path d="M26.6742 32.0826C26.6742 29.1346 29.0627 26.7441 32.0098 26.7441C34.957 26.7441 37.3468 29.1346 37.3468 32.0826C37.3468 35.0306 34.957 37.4211 32.0098 37.4211C29.0627 37.4211 26.6742 35.0306 26.6742 32.0826ZM23.7891 32.0826C23.7891 36.6242 27.4695 40.3057 32.0098 40.3057C36.5502 40.3057 40.2306 36.6242 40.2306 32.0826C40.2306 27.5409 36.5502 23.8595 32.0098 23.8595C27.4695 23.8595 23.7891 27.5409 23.7891 32.0826ZM38.6349 23.5334C38.6347 23.9135 38.7472 24.2851 38.9582 24.6012C39.1692 24.9173 39.4691 25.1637 39.8201 25.3093C40.1711 25.4549 40.5574 25.4931 40.9301 25.4191C41.3028 25.3451 41.6452 25.1622 41.9139 24.8936C42.1827 24.6249 42.3658 24.2826 42.4401 23.9099C42.5144 23.5371 42.4765 23.1507 42.3312 22.7995C42.186 22.4483 41.9398 22.1481 41.624 21.9368C41.3082 21.7255 40.9368 21.6126 40.5568 21.6125H40.556C40.0467 21.6127 39.5583 21.8152 39.1981 22.1753C38.8379 22.5355 38.6353 23.024 38.6349 23.5334ZM25.542 45.1178C23.9811 45.0467 23.1327 44.7866 22.5689 44.5669C21.8215 44.2758 21.2882 43.9291 20.7274 43.369C20.1667 42.8089 19.8196 42.276 19.5299 41.5283C19.3101 40.9646 19.0501 40.1157 18.9792 38.5544C18.9016 36.8664 18.8861 36.3593 18.8861 32.0827C18.8861 27.8061 18.9028 27.3005 18.9792 25.611C19.0503 24.0497 19.3122 23.2025 19.5299 22.6371C19.8209 21.8895 20.1675 21.356 20.7274 20.7951C21.2874 20.2342 21.8202 19.887 22.5689 19.5973C23.1325 19.3774 23.9811 19.1173 25.542 19.0464C27.2295 18.9687 27.7364 18.9532 32.0098 18.9532C36.2833 18.9532 36.7907 18.97 38.4796 19.0464C40.0405 19.1175 40.8875 19.3795 41.4527 19.5973C42.2001 19.887 42.7335 20.235 43.2942 20.7951C43.8549 21.3552 44.2007 21.8895 44.4917 22.6371C44.7115 23.2008 44.9715 24.0497 45.0424 25.611C45.12 27.3005 45.1355 27.8061 45.1355 32.0827C45.1355 36.3593 45.12 36.8649 45.0424 38.5544C44.9713 40.1157 44.7101 40.9643 44.4917 41.5283C44.2007 42.276 43.8541 42.8094 43.2942 43.369C42.7342 43.9286 42.2001 44.2758 41.4527 44.5669C40.8892 44.7867 40.0405 45.0468 38.4796 45.1178C36.7921 45.1954 36.2852 45.2109 32.0098 45.2109C27.7345 45.2109 27.229 45.1954 25.542 45.1178ZM25.4094 16.1653C23.7051 16.243 22.5405 16.5133 21.5234 16.9092C20.4701 17.318 19.5785 17.8664 18.6874 18.7563C17.7964 19.6462 17.2495 20.5395 16.8408 21.5931C16.4451 22.6111 16.1748 23.7754 16.0972 25.4802C16.0183 27.1877 16.0002 27.7336 16.0002 32.0826C16.0002 36.4315 16.0183 36.9774 16.0972 38.6849C16.1748 40.3899 16.4451 41.554 16.8408 42.572C17.2495 43.625 17.7965 44.5194 18.6874 45.4088C19.5783 46.2983 20.4701 46.846 21.5234 47.256C22.5424 47.6519 23.7051 47.9222 25.4094 47.9998C27.1173 48.0775 27.6621 48.0968 32.0098 48.0968C36.3575 48.0968 36.9033 48.0787 38.6103 47.9998C40.3147 47.9222 41.4786 47.6519 42.4963 47.256C43.5489 46.846 44.4412 46.2987 45.3323 45.4088C46.2233 44.519 46.769 43.625 47.1789 42.572C47.5746 41.554 47.8462 40.3897 47.9225 38.6849C48.0001 36.9761 48.0182 36.4315 48.0182 32.0826C48.0182 27.7336 48.0001 27.1877 47.9225 25.4802C47.8449 23.7753 47.5746 22.6105 47.1789 21.5931C46.769 20.5402 46.2219 19.6476 45.3323 18.7563C44.4426 17.865 43.5489 17.318 42.4975 16.9092C41.4786 16.5133 40.3146 16.2417 38.6116 16.1653C36.9046 16.0877 36.3588 16.0684 32.0111 16.0684C27.6634 16.0684 27.1173 16.0864 25.4094 16.1653Z" fill="#FDFDFD"/>
<path d="M26.6742 32.0826C26.6742 29.1346 29.0627 26.7441 32.0098 26.7441C34.957 26.7441 37.3468 29.1346 37.3468 32.0826C37.3468 35.0306 34.957 37.4211 32.0098 37.4211C29.0627 37.4211 26.6742 35.0306 26.6742 32.0826ZM23.7891 32.0826C23.7891 36.6242 27.4695 40.3057 32.0098 40.3057C36.5502 40.3057 40.2306 36.6242 40.2306 32.0826C40.2306 27.5409 36.5502 23.8595 32.0098 23.8595C27.4695 23.8595 23.7891 27.5409 23.7891 32.0826ZM38.6349 23.5334C38.6347 23.9135 38.7472 24.2851 38.9582 24.6012C39.1692 24.9173 39.4691 25.1637 39.8201 25.3093C40.1711 25.4549 40.5574 25.4931 40.9301 25.4191C41.3028 25.3451 41.6452 25.1622 41.9139 24.8936C42.1827 24.6249 42.3658 24.2826 42.4401 23.9099C42.5144 23.5371 42.4765 23.1507 42.3312 22.7995C42.186 22.4483 41.9398 22.1481 41.624 21.9368C41.3082 21.7255 40.9368 21.6126 40.5568 21.6125H40.556C40.0467 21.6127 39.5583 21.8152 39.1981 22.1753C38.8379 22.5355 38.6353 23.024 38.6349 23.5334ZM25.542 45.1178C23.9811 45.0467 23.1327 44.7866 22.5689 44.5669C21.8215 44.2758 21.2882 43.9291 20.7274 43.369C20.1667 42.8089 19.8196 42.276 19.5299 41.5283C19.3101 40.9646 19.0501 40.1157 18.9792 38.5544C18.9016 36.8664 18.8861 36.3593 18.8861 32.0827C18.8861 27.8061 18.9028 27.3005 18.9792 25.611C19.0503 24.0497 19.3122 23.2025 19.5299 22.6371C19.8209 21.8895 20.1675 21.356 20.7274 20.7951C21.2874 20.2342 21.8202 19.887 22.5689 19.5973C23.1325 19.3774 23.9811 19.1173 25.542 19.0464C27.2295 18.9687 27.7364 18.9532 32.0098 18.9532C36.2833 18.9532 36.7907 18.97 38.4796 19.0464C40.0405 19.1175 40.8875 19.3795 41.4527 19.5973C42.2001 19.887 42.7335 20.235 43.2942 20.7951C43.8549 21.3552 44.2007 21.8895 44.4917 22.6371C44.7115 23.2008 44.9715 24.0497 45.0424 25.611C45.12 27.3005 45.1355 27.8061 45.1355 32.0827C45.1355 36.3593 45.12 36.8649 45.0424 38.5544C44.9713 40.1157 44.7101 40.9643 44.4917 41.5283C44.2007 42.276 43.8541 42.8094 43.2942 43.369C42.7342 43.9286 42.2001 44.2758 41.4527 44.5669C40.8892 44.7867 40.0405 45.0468 38.4796 45.1178C36.7921 45.1954 36.2852 45.2109 32.0098 45.2109C27.7345 45.2109 27.229 45.1954 25.542 45.1178ZM25.4094 16.1653C23.7051 16.243 22.5405 16.5133 21.5234 16.9092C20.4701 17.318 19.5785 17.8664 18.6874 18.7563C17.7964 19.6462 17.2495 20.5395 16.8408 21.5931C16.4451 22.6111 16.1748 23.7754 16.0972 25.4802C16.0183 27.1877 16.0002 27.7336 16.0002 32.0826C16.0002 36.4315 16.0183 36.9774 16.0972 38.6849C16.1748 40.3899 16.4451 41.554 16.8408 42.572C17.2495 43.625 17.7965 44.5194 18.6874 45.4088C19.5783 46.2983 20.4701 46.846 21.5234 47.256C22.5424 47.6519 23.7051 47.9222 25.4094 47.9998C27.1173 48.0775 27.6621 48.0968 32.0098 48.0968C36.3575 48.0968 36.9033 48.0787 38.6103 47.9998C40.3147 47.9222 41.4786 47.6519 42.4963 47.256C43.5489 46.846 44.4412 46.2987 45.3323 45.4088C46.2233 44.519 46.769 43.625 47.1789 42.572C47.5746 41.554 47.8462 40.3897 47.9225 38.6849C48.0001 36.9761 48.0182 36.4315 48.0182 32.0826C48.0182 27.7336 48.0001 27.1877 47.9225 25.4802C47.8449 23.7753 47.5746 22.6105 47.1789 21.5931C46.769 20.5402 46.2219 19.6476 45.3323 18.7563C44.4426 17.865 43.5489 17.318 42.4975 16.9092C41.4786 16.5133 40.3146 16.2417 38.6116 16.1653C36.9046 16.0877 36.3588 16.0684 32.0111 16.0684C27.6634 16.0684 27.1173 16.0864 25.4094 16.1653Z" fill="#FDFDFD"/>
</svg>
