<svg width="60" height="60" viewBox="0 0 60 60" fill="none" xmlns="http://www.w3.org/2000/svg">
<path d="M30 5C23.45 5 18.125 10.325 18.125 16.875C18.125 23.3 23.15 28.5 29.7 28.725C29.9 28.7 30.1 28.7 30.25 28.725C30.3 28.725 30.325 28.725 30.375 28.725C30.4 28.725 30.4 28.725 30.425 28.725C36.825 28.5 41.85 23.3 41.875 16.875C41.875 10.325 36.55 5 30 5Z" fill="#FDFDFD"/>
<path d="M42.6999 35.3742C35.7249 30.7242 24.3499 30.7242 17.3249 35.3742C14.1499 37.4992 12.3999 40.3742 12.3999 43.4492C12.3999 46.5242 14.1499 49.3742 17.2999 51.4742C20.7999 53.8242 25.3999 54.9992 29.9999 54.9992C34.5999 54.9992 39.1999 53.8242 42.6999 51.4742C45.8499 49.3492 47.5999 46.4992 47.5999 43.3992C47.5749 40.3242 45.8499 37.4742 42.6999 35.3742Z" fill="#FDFDFD"/>
</svg>
