<svg width="64" height="64" viewBox="0 0 64 64" fill="none" xmlns="http://www.w3.org/2000/svg">
<rect x="0.5" y="0.5" width="63" height="63" rx="31.5" fill="black"/>
<rect x="0.5" y="0.5" width="63" height="63" rx="31.5" stroke="#252B37"/>
<path d="M31.8043 51.0787C21.2074 51.0787 12.5823 42.4536 12.5823 31.8568C12.5823 21.2599 21.2074 12.6348 31.8043 12.6348C42.4012 12.6348 51.0263 21.2599 51.0263 31.8568C51.0263 42.4536 42.4012 51.0787 31.8043 51.0787ZM31.8043 15.7351C22.9125 15.7351 15.6826 22.965 15.6826 31.8568C15.6826 40.7485 22.9125 47.9784 31.8043 47.9784C40.696 47.9784 47.9259 40.7485 47.9259 31.8568C47.9259 22.965 40.696 15.7351 31.8043 15.7351Z" fill="#FDFDFD"/>
<path d="M26.2247 29.965C22.5911 29.965 18.6599 29.4255 14.4682 28.3342C13.6374 28.1172 13.1413 27.2739 13.3583 26.443C13.5754 25.6121 14.4186 25.1161 15.2495 25.3331C27.9484 28.6319 37.8881 26.5422 43.9895 19.2999C44.5414 18.6488 45.5211 18.562 46.1721 19.1139C46.8294 19.6657 46.91 20.6454 46.3582 21.2965C41.5154 27.0445 34.6699 29.965 26.2247 29.965Z" fill="#FDFDFD"/>
<path d="M18.474 45.0078C18.1143 45.0078 17.7609 44.8838 17.4695 44.6357C16.8184 44.0777 16.744 43.098 17.2958 42.4469C26.3612 31.85 38.0928 29.3326 49.4834 35.5518C50.2336 35.961 50.5127 36.9035 50.1034 37.6538C49.6942 38.4041 48.7517 38.6831 48.0014 38.2739C34.3228 30.8145 24.3708 38.9498 19.6521 44.4683C19.3482 44.8218 18.9142 45.0078 18.474 45.0078Z" fill="#FDFDFD"/>
<path d="M36.8823 50.3344C36.8265 50.3344 36.7707 50.3344 36.7149 50.3282C35.8654 50.2352 35.2515 49.4725 35.3446 48.6168C36.5537 37.5301 33.7014 26.3503 26.8745 15.3752C26.4218 14.6497 26.6451 13.6948 27.3705 13.2422C28.096 12.7895 29.0509 13.0127 29.5036 13.7382C36.7087 25.3148 39.7098 37.1642 38.4263 48.9579C38.3333 49.7515 37.6636 50.3344 36.8823 50.3344Z" fill="#FDFDFD"/>
</svg>
