<svg width="128" height="48" viewBox="0 0 128 48" fill="none" xmlns="http://www.w3.org/2000/svg">
<g clip-path="url(#clip0_18411_3141)">
<path d="M44.172 24.0526C44.1762 22.2602 43.6261 20.5103 42.597 19.0428C41.5679 17.5752 40.1102 16.4617 38.4236 15.8549C38.5771 15.0726 38.6545 14.2773 38.6547 13.4801C38.6562 10.8413 37.8209 8.26997 36.2689 6.13585C34.7169 4.00172 32.5281 2.4147 30.0173 1.60296C27.5064 0.79122 24.8029 0.796569 22.2953 1.61824C19.7877 2.43991 17.6052 4.03558 16.0616 6.17583C14.9229 5.29337 13.5275 4.80608 12.087 4.78776C10.6464 4.76944 9.23914 5.2211 8.0783 6.07432C6.91746 6.92754 6.06631 8.13583 5.65377 9.51617C5.24123 10.8965 5.28978 12.3737 5.79207 13.724C4.10152 14.3402 2.64022 15.4593 1.60473 16.9308C0.56924 18.4024 0.00923079 20.1557 2.95997e-05 21.955C-0.00466136 23.7536 0.548321 25.5095 1.58284 26.9808C2.61736 28.4521 4.08255 29.5666 5.77666 30.1707C5.6267 30.9526 5.5502 31.7468 5.54817 32.543C5.54565 35.1787 6.38025 37.7471 7.93163 39.8779C9.48302 42.0087 11.671 43.5918 14.1802 44.3988C16.6893 45.2059 19.3899 45.1953 21.8926 44.3685C24.3953 43.5416 26.5707 41.9414 28.1053 39.7984C29.2407 40.6831 30.6337 41.1733 32.0729 41.1948C33.5121 41.2163 34.9191 40.7678 36.0805 39.9174C37.2418 39.0671 38.0941 37.8611 38.5082 36.4826C38.9222 35.104 38.8754 33.6281 38.3749 32.2785C40.0663 31.6634 41.5286 30.5446 42.5646 29.0729C43.6007 27.6012 44.1608 25.8473 44.1695 24.0475" fill="white"/>
<path d="M17.366 19.9502L27.0323 24.3635L36.7884 15.8192C36.9289 15.1142 36.9986 14.3969 36.9963 13.678C36.9958 11.3507 36.2505 9.0846 34.8693 7.21135C33.4882 5.33811 31.5438 3.95605 29.3207 3.26742C27.0976 2.57879 24.7124 2.61973 22.5142 3.38425C20.316 4.14878 18.4202 5.59675 17.1042 7.51629L15.479 15.9219L17.366 19.9502Z" fill="#FEC514"/>
<path d="M7.36056 30.1865C7.21803 30.9025 7.14665 31.6309 7.14747 32.361C7.14752 34.6981 7.89669 36.9736 9.28502 38.8535C10.6734 40.7335 12.6278 42.1189 14.8614 42.8065C17.095 43.4941 19.4902 43.4476 21.6954 42.6738C23.9006 41.9001 25.7998 40.4398 27.1141 38.5074L28.7238 30.1197L26.5749 26.0119L16.8728 21.5908L7.36056 30.1865Z" fill="#00BFB3"/>
<path d="M7.30175 13.46L13.9256 15.0235L15.3762 7.49081C14.4753 6.80766 13.3773 6.43471 12.2466 6.42783C11.116 6.42095 10.0135 6.78049 9.10434 7.45263C8.19514 8.12477 7.52813 9.07333 7.20317 10.1563C6.87822 11.2393 6.9128 12.3983 7.30175 13.46Z" fill="#F04E98"/>
<path d="M6.72678 15.0361C5.27343 15.5266 4.00905 16.4577 3.10948 17.7001C2.20991 18.9425 1.71987 20.4343 1.70752 21.9681C1.70648 23.4505 2.15664 24.898 2.99818 26.1184C3.83971 27.3387 5.03275 28.274 6.41869 28.7999L15.7127 20.3994L14.0053 16.7537L6.72678 15.0361Z" fill="#1BA9F5"/>
<path d="M28.814 38.5075C29.7134 39.1872 30.8087 39.5578 31.9361 39.5637C33.0635 39.5697 34.1625 39.2109 35.0692 38.5408C35.9759 37.8707 36.6414 36.9253 36.9665 35.8458C37.2916 34.7662 37.2588 33.6105 36.873 32.5512L30.2543 31.0107L28.814 38.5075Z" fill="#93C90E"/>
<path d="M30.1593 29.2673L37.4456 30.9695C38.8998 30.4804 40.165 29.5495 41.0648 28.3069C41.9646 27.0642 42.454 25.5717 42.4648 24.0375C42.4635 22.5582 42.0125 21.1144 41.1715 19.8974C40.3305 18.6805 39.1394 17.748 37.7562 17.2236L28.2261 25.5677L30.1593 29.2673Z" fill="#0077CC"/>
<path d="M61.7613 31.911L62.6445 31.8211L62.7061 33.6183C60.7408 33.9151 58.7577 34.0781 56.7703 34.1061C54.5795 34.1061 53.027 33.472 52.1131 32.2037C51.1991 30.9354 50.7429 28.9619 50.7446 26.2833C50.7446 20.9482 52.8653 18.2798 57.1066 18.2781C59.1605 18.2781 60.6924 18.8515 61.7023 19.9983C62.7121 21.1451 63.2187 22.9422 63.2222 25.3898L63.1015 27.1254H53.0579C53.0579 28.8096 53.3625 30.0573 53.9718 30.8686C54.5812 31.6799 55.6407 32.0856 57.1503 32.0856C58.6633 32.0907 60.2003 32.0325 61.7613 31.911ZM60.9397 25.3077C60.9397 23.4403 60.6411 22.1215 60.0437 21.3513C59.4464 20.5811 58.4725 20.1951 57.122 20.1934C55.7716 20.1934 54.7566 20.5991 54.0771 21.4103C53.3976 22.2216 53.0476 23.5207 53.027 25.3077H60.9397Z" fill="#1C1E23"/>
<path d="M66.4057 33.9854V13.9598H68.6882V33.9854H66.4057Z" fill="#1C1E23"/>
<path d="M83.0631 23.1767V30.8532C83.0631 31.6234 84.9578 31.5824 84.9578 31.5824L84.8423 33.6003C83.2377 33.6003 81.9103 33.7338 81.1144 32.9611C79.3909 33.7265 77.524 34.116 75.6382 34.1035C74.2398 34.1035 73.1744 33.7073 72.4418 32.9148C71.7092 32.1224 71.3438 30.9833 71.3455 29.4976C71.3455 28.0154 71.7212 26.9242 72.4726 26.2242C73.224 25.5242 74.4007 25.0963 76.0028 24.9405L80.7807 24.4861V23.1767C80.7807 22.1497 80.5582 21.4086 80.1132 20.9533C79.8693 20.7245 79.5816 20.5473 79.2675 20.4326C78.9533 20.3179 78.6192 20.2679 78.2852 20.2858H72.2878V18.2755H78.1337C79.859 18.2755 81.1119 18.6718 81.8924 19.4643C82.6728 20.2567 83.0631 21.4942 83.0631 23.1767ZM73.6844 29.3847C73.6844 31.252 74.4546 32.1857 75.9951 32.1857C77.3847 32.1841 78.7641 31.9471 80.0747 31.4848L80.773 31.2409V26.2191L76.2775 26.6453C75.3635 26.7274 74.7037 26.991 74.298 27.436C73.8924 27.881 73.6878 28.5306 73.6844 29.3847Z" fill="#1C1E23"/>
<path d="M91.9743 20.3166C89.7612 20.3166 88.6546 21.0868 88.6546 22.6273C88.6546 23.3393 88.9114 23.8417 89.4249 24.1343C89.9383 24.427 91.0945 24.7317 92.8934 25.0483C94.7009 25.365 95.9794 25.8066 96.7291 26.3731C97.4788 26.9396 97.8545 28.0043 97.8562 29.5669C97.8562 31.1313 97.3538 32.2781 96.3491 33.0073C95.3444 33.7364 93.8784 34.1018 91.9512 34.1035C90.6932 34.1035 86.4929 33.6363 86.4929 33.6363L86.6161 31.6594C89.0295 31.8904 90.7728 32.0625 91.9512 32.0625C93.1296 32.0625 94.0256 31.875 94.6444 31.5002C95.2631 31.1254 95.5712 30.4963 95.5712 29.6132C95.5712 28.73 95.3145 28.1318 94.7805 27.816C94.2464 27.5002 93.0962 27.2024 91.3119 26.9174C89.5276 26.6324 88.2567 26.2165 87.507 25.6696C86.7573 25.1228 86.3799 24.1061 86.3799 22.6247C86.3799 21.1433 86.8934 20.0573 87.9486 19.3385C89.0038 18.6196 90.2978 18.273 91.8588 18.273C93.0962 18.273 97.3915 18.5888 97.3915 18.5888V20.5785C95.1245 20.4784 93.2708 20.3166 91.9743 20.3166Z" fill="#1C1E23"/>
<path d="M108.858 20.558H104.018V27.834C104.018 29.5781 104.145 30.724 104.398 31.2717C104.655 31.8211 105.256 32.0933 106.208 32.0933L108.917 31.911L109.071 33.798C108.045 33.9876 107.007 34.1 105.964 34.1343C104.383 34.1343 103.287 33.7484 102.678 32.9765C102.069 32.2045 101.765 30.7334 101.766 28.5631V20.558H99.615V18.5811H101.777V13.9238H104.028V18.5811H108.858V20.558Z" fill="#1C1E23"/>
<path d="M112.031 16.6376V13.988H114.313V16.6376H112.031ZM112.031 33.9854V18.5811H114.313V33.9854H112.031Z" fill="#1C1E23"/>
<path d="M124.2 18.2756C125.34 18.3242 126.476 18.4468 127.6 18.6427L128.329 18.7326L128.239 20.5888C127.046 20.4377 125.846 20.3468 124.645 20.3166C122.919 20.3166 121.748 20.7274 121.13 21.549C120.512 22.3706 120.202 23.8922 120.2 26.1138C120.2 28.3389 120.49 29.8862 121.068 30.7557C121.647 31.6252 122.853 32.0616 124.688 32.065L128.283 31.7929L128.375 33.6799C126.976 33.9169 125.562 34.0593 124.144 34.1061C121.772 34.1061 120.134 33.4968 119.23 32.2781C118.326 31.0595 117.874 29.0056 117.874 26.1164C117.874 23.2255 118.361 21.1964 119.335 20.0291C120.309 18.8618 121.931 18.2773 124.2 18.2756Z" fill="#1C1E23"/>
</g>
<defs>
<clipPath id="clip0_18411_3141">
<rect width="128" height="48" fill="white"/>
</clipPath>
</defs>
</svg>
