<svg width="133" height="48" viewBox="0 0 133 48" fill="none" xmlns="http://www.w3.org/2000/svg">
<path d="M14.635 6H0V41L14.635 6Z" fill="#FA0C00"/>
<path d="M24.9321 6H39.548V41L24.9321 6Z" fill="#FA0C00"/>
<path d="M19.7837 18.8994L29.0986 40.9997H22.9872L20.2032 33.9634H13.3862L19.7837 18.8994Z" fill="#FA0C00"/>
<path d="M63.4236 28.2577L65.1493 33.2059C65.2065 33.3298 65.2923 33.3871 65.4448 33.3871H68.7627C68.9439 33.3871 68.9725 33.3012 68.9439 33.1201L62.0888 14.0803C62.0602 13.9278 62.0316 13.8992 61.879 13.8992H57.7603C57.6459 13.8992 57.5791 13.985 57.5791 14.1089C57.5219 15.11 57.4361 15.4151 57.3122 15.7107L51.2007 33.0915C51.1721 33.3012 51.2389 33.3871 51.4105 33.3871H54.3756C54.5568 33.3871 54.6426 33.3298 54.7093 33.1487L56.3397 28.2577H63.4236ZM57.2836 25.0256C58.1798 22.3179 59.362 18.8474 59.8387 16.8643H59.8673C60.4584 18.9428 61.8504 23.0615 62.4797 25.0256H57.2836Z" fill="#FA0C00"/>
<path d="M77.7567 33.6823C79.5396 33.6823 81.4369 33.3582 83.3628 32.5287C83.5154 32.4715 83.544 32.4048 83.544 32.2617C83.4867 31.7278 83.42 30.9556 83.42 30.3644V12.4402C83.42 12.3258 83.42 12.2686 83.277 12.2686H80.0449C79.921 12.2686 79.8638 12.3258 79.8638 12.4783V18.5516C79.3584 18.4944 79.0057 18.4658 78.5862 18.4658C73.371 18.4658 70.1675 21.9076 70.1675 26.2075C70.1675 31.1939 73.4568 33.6823 77.7567 33.6823ZM79.8638 30.3644C79.3298 30.5361 78.7387 30.6028 78.1381 30.6028C75.7736 30.6028 73.8381 29.268 73.8381 26.0264C73.8381 23.1566 75.8308 21.4595 78.4718 21.4595C79.0057 21.4595 79.4729 21.5167 79.8638 21.6693V30.3644Z" fill="#FA0C00"/>
<path d="M93.8548 18.4658C89.4024 18.4658 86.647 21.8791 86.647 26.0932C86.647 29.8592 88.8398 33.6824 93.7881 33.6824C97.9736 33.6824 100.91 30.6028 100.91 25.9978C100.91 21.9363 98.4217 18.4658 93.8548 18.4658ZM93.6737 21.4596C96.1907 21.4596 97.2585 23.6238 97.2585 26.0932C97.2585 29.1441 95.6854 30.66 93.8548 30.66C91.5952 30.66 90.2604 28.7627 90.2604 26.0264C90.2604 23.2138 91.681 21.4596 93.6737 21.4596Z" fill="#FA0C00"/>
<path d="M104.252 12.2686C104.128 12.2686 104.042 12.3258 104.042 12.4783V32.7671C104.042 32.8529 104.128 33.0054 104.252 33.034C105.672 33.4726 107.16 33.6823 108.695 33.6823C113.09 33.6823 117.361 30.9556 117.361 25.4639C117.361 21.4881 114.634 18.4658 110.363 18.4658C109.381 18.4658 108.466 18.6183 107.665 18.8853L107.627 12.5069C107.627 12.2972 107.57 12.2686 107.36 12.2686H104.252ZM113.71 25.8262C113.71 29.1155 111.46 30.66 109.028 30.66C108.523 30.66 108.075 30.6314 107.665 30.5075V21.8504C108.132 21.6693 108.695 21.5167 109.734 21.5167C112.079 21.5167 113.71 23.004 113.71 25.8262Z" fill="#FA0C00"/>
<path d="M129.423 26.894C130.872 26.894 132.064 26.8654 132.474 26.7701C132.627 26.7415 132.684 26.6843 132.713 26.5603C132.798 26.2362 132.836 25.5593 132.836 24.7298C132.836 21.9077 131.139 18.4658 126.754 18.4658C122.273 18.4658 119.784 22.1174 119.784 26.2362C119.784 29.8878 121.71 33.6824 127.106 33.6824C129.128 33.6824 130.434 33.3582 131.559 32.8243C131.673 32.7671 131.73 32.6718 131.73 32.5001V30.0308C131.73 29.8878 131.645 29.8592 131.559 29.9164C130.434 30.3931 129.213 30.6314 127.879 30.6314C124.856 30.6314 123.483 28.963 123.398 26.894H129.423ZM123.398 24.3389C123.636 22.8897 124.551 21.3165 126.601 21.3165C128.861 21.3165 129.452 23.2138 129.452 24.0719C129.452 24.1005 129.452 24.2245 129.452 24.3103C129.328 24.3389 128.947 24.3389 127.821 24.3389H123.398Z" fill="#FA0C00"/>
</svg>
